<svg width="340" height="348" viewBox="0 0 340 348" fill="none" xmlns="http://www.w3.org/2000/svg">
<g filter="url(#filter0_d_9_39)">
<path d="M296.55 280.272C316.71 260.602 329.85 217.228 333.9 198C325.26 211.996 305.4 231.571 296.55 239.609L243 322.353C256.05 318.571 271.35 304.859 296.55 280.272Z" fill="url(#paint0_linear_9_39)"/>
<path d="M296.1 239.609L333.9 198L318.6 239.609H296.1Z" fill="url(#paint1_linear_9_39)"/>
<path d="M306.9 239.609H296.1C286.02 251.713 264.9 286.576 255.6 302.495C263.7 302.967 274.95 292.092 288 277.435C298.44 265.709 304.95 247.332 306.9 239.609Z" fill="#B43200"/>
<path d="M225.803 329.179L182.603 300.81C178.254 302.228 167.304 306.295 158.304 311.212C147.054 317.359 107.453 323.505 107.003 324.451C106.553 325.397 149.753 342.419 185.303 339.109C213.743 336.461 224.153 331.386 225.803 329.179Z" fill="#FF9102"/>
<path d="M245.604 298.446L274.404 254L212.754 286.152L245.604 298.446Z" fill="#5C0802"/>
<path d="M227.154 327.288L245.604 298.446L214.104 285.679L206.004 289.935L227.154 327.288Z" fill="#8A2005"/>
<path d="M225.804 329.179L227.154 327.288L208.704 288.516L182.604 300.81L225.804 329.179Z" fill="#D94400"/>
<path d="M236.432 215.185L245.432 80.9022C249.752 77.8761 272.282 175.468 278.282 203.837L271.532 248.283L236.432 215.185Z" fill="url(#paint2_radial_9_39)"/>
<path d="M69.9315 190.598L122.582 77.5924L222.032 80.4294L231.932 209.984C205.382 209.038 136.082 225.587 106.832 221.332C83.4315 217.927 72.4815 199.424 69.9315 190.598Z" fill="url(#paint3_radial_9_39)"/>
<path d="M224.281 109.745L246.331 82.7935L258.481 123.456L253.531 152.772C251.731 164.12 243.781 200.054 238.681 217.549L228.781 209.984L224.281 109.745Z" fill="#F16305"/>
<path d="M73.9815 121.565L100.531 133.386L71.2815 193.435C64.4415 182.087 64.5315 176.098 65.4315 174.522L73.9815 121.565Z" fill="#B93401"/>
<path d="M82.9814 65.299L127.531 78.5381L100.592 133.263L73.9814 121.565C74.3414 113.622 80.1314 80.7446 82.9814 65.299Z" fill="#631005"/>
<path d="M85.2314 48.75L82.9814 65.2989L127.531 78.538L137.881 40.2391L85.2314 48.75Z" fill="#C37C60"/>
<path d="M293.131 83.2663C282.331 59.0576 249.031 35.6685 233.731 27L246.781 84.6848L277.433 209.566L293.131 83.2663Z" fill="#FFA148"/>
<path d="M233.282 27L137.881 40.2391L127.531 78.0652L224.282 109.745L263.432 62.9348C265.592 46.6696 244.231 32.2011 233.282 27Z" fill="url(#paint4_linear_9_39)"/>
<path d="M5.02821 165.875H40.5782L39.2283 205.592L7.72821 204.647C2.68821 188.003 3.82821 171.864 5.02821 165.875Z" fill="#7B1D05"/>
<path d="M37.4283 247.674C16.7283 228.288 13.2783 215.995 7.72827 204.647L39.2283 206.065L37.4283 247.674Z" fill="#C63900"/>
<path d="M44.1784 68L37.4284 75.0924L5.02837 161.62L4.57837 165.875H40.5784L44.1784 68Z" fill="#892207"/>
<path d="M37.4283 75.0924C12.9483 102.327 5.62832 144.44 5.02832 162.092C20.5083 149.61 33.0783 111.815 37.4283 94.4783C38.8683 86.9131 38.0283 78.4022 37.4283 75.0924Z" fill="#FF8504"/>
<path d="M151.65 30.7782L129.15 6.66403C162.27 -4.68379 194.55 0.990118 206.55 5.24555C206.91 7.51512 170.1 23.2129 151.65 30.7782Z" fill="white"/>
<path d="M72 39.7619C82.08 25.388 114.3 11.7075 129.15 6.66406L151.65 30.7782C123.21 39.8565 82.8 44.0173 72 39.7619Z" fill="url(#paint5_linear_9_39)"/>
<path d="M243.9 18.9574C243.54 15.1748 218.85 8.24005 206.55 5.24548C204.75 8.08244 159.75 26.5227 141.75 33.615C150.75 31.7237 217.2 22.74 243.9 18.9574Z" fill="url(#paint6_linear_9_39)"/>
<path d="M334.738 166.348C340.138 129.278 319.288 85.337 308.188 68C297.028 107.339 317.638 157.522 329.338 177.696L334.738 166.348Z" fill="#D9D9D9"/>
<path d="M329.338 177.696L293.788 210.321C290.188 207.295 299.788 128.049 305.038 88.8043C304.318 125.496 320.938 163.353 329.338 177.696Z" fill="#594C4C"/>
<path d="M200.228 282.131L252.878 253.762L129.128 255.18L200.228 282.131Z" fill="#28000B"/>
<path d="M71.9783 255.18H129.128L201.128 281.659L169.178 295.843L86.8283 267.474L80.0783 299.626H71.9783V255.18Z" fill="#8A1F03"/>
<path d="M85.4783 264.637L78.7283 299.626L144.878 302.936C151.718 304.071 164.828 298.05 170.528 294.898L85.4783 264.637Z" fill="#FB6A00"/>
</g>
<defs>
<filter id="filter0_d_9_39" x="0" y="0" width="339.615" height="347.535" filterUnits="userSpaceOnUse" color-interpolation-filters="sRGB">
<feFlood flood-opacity="0" result="BackgroundImageFix"/>
<feColorMatrix in="SourceAlpha" type="matrix" values="0 0 0 0 0 0 0 0 0 0 0 0 0 0 0 0 0 0 127 0" result="hardAlpha"/>
<feOffset dy="4"/>
<feGaussianBlur stdDeviation="2"/>
<feComposite in2="hardAlpha" operator="out"/>
<feColorMatrix type="matrix" values="0 0 0 0 0 0 0 0 0 0 0 0 0 0 0 0 0 0 0.25 0"/>
<feBlend mode="normal" in2="BackgroundImageFix" result="effect1_dropShadow_9_39"/>
<feBlend mode="normal" in="SourceGraphic" in2="effect1_dropShadow_9_39" result="shape"/>
</filter>
<linearGradient id="paint0_linear_9_39" x1="332.55" y1="199.418" x2="238.29" y2="316.906" gradientUnits="userSpaceOnUse">
<stop stop-color="#D24200"/>
<stop offset="0.66" stop-color="#F05E00"/>
<stop offset="1" stop-color="#FF6B00"/>
</linearGradient>
<linearGradient id="paint1_linear_9_39" x1="298.8" y1="240.554" x2="335.043" y2="208.301" gradientUnits="userSpaceOnUse">
<stop stop-color="#621B03"/>
<stop offset="0.565" stop-color="#A02C05"/>
<stop offset="1" stop-color="#C83706"/>
</linearGradient>
<radialGradient id="paint2_radial_9_39" cx="0" cy="0" r="1" gradientUnits="userSpaceOnUse" gradientTransform="translate(257.132 133.386) rotate(83.8377) scale(113.187 28.3222)">
<stop offset="0.295532" stop-color="#8F3700"/>
<stop offset="1" stop-color="#F55E00"/>
</radialGradient>
<radialGradient id="paint3_radial_9_39" cx="0" cy="0" r="1" gradientUnits="userSpaceOnUse" gradientTransform="translate(80.2815 207.147) rotate(-34.0656) scale(172.2 206.922)">
<stop stop-color="#FFB226"/>
<stop offset="0.434374" stop-color="#FB6A00"/>
<stop offset="0.67" stop-color="#B94302"/>
<stop offset="1" stop-color="#631005"/>
</radialGradient>
<linearGradient id="paint4_linear_9_39" x1="136.531" y1="53.0054" x2="267.496" y2="57.2887" gradientUnits="userSpaceOnUse">
<stop stop-color="#FAB989"/>
<stop offset="1" stop-color="white"/>
</linearGradient>
<linearGradient id="paint5_linear_9_39" x1="136.8" y1="15.6478" x2="70.8901" y2="37.2781" gradientUnits="userSpaceOnUse">
<stop stop-color="#FFFEFE"/>
<stop offset="0.38" stop-color="#FFC195"/>
<stop offset="1" stop-color="#997459"/>
</linearGradient>
<linearGradient id="paint6_linear_9_39" x1="141.75" y1="19.4303" x2="243.9" y2="19.4303" gradientUnits="userSpaceOnUse">
<stop stop-color="#60686F"/>
<stop offset="1" stop-color="#BCC4CC"/>
</linearGradient>
</defs>
</svg>
